<svg width="22" height="25" viewBox="0 0 22 25" fill="none" xmlns="http://www.w3.org/2000/svg">
<path fill-rule="evenodd" clip-rule="evenodd" d="M8.18129 1.41363C6.67429 2.18944 5.44135 2.84593 5.44162 2.87263C5.44229 2.94155 9.05846 4.75141 9.18681 4.747C9.2452 4.74507 9.66874 4.55239 10.128 4.31888L10.9631 3.8944L11.8751 4.3577L12.7871 4.82108L14.2806 4.15784C16.5311 3.15844 16.7648 3.04893 16.7282 3.01214C16.6796 2.96332 15.8724 2.53477 13.6824 1.39535C12.624 0.844661 11.5967 0.304724 11.3995 0.195468C11.2023 0.0862123 11.0141 -0.00167698 10.9812 2.42882e-05C10.9483 0.00172556 9.68832 0.637856 8.18129 1.41363ZM1.5716 4.79616L0.00283024 5.59697V9.11156C0.00283024 11.0446 0.0234297 12.6261 0.0486976 12.6261C0.073878 12.6261 0.845716 12.2955 1.76385 11.8913L3.4332 11.1566V7.45196L4.24895 7.89117C4.87755 8.22932 5.50654 8.56678 6.1359 8.90354L7.20707 9.4767L7.68372 9.26369C7.98266 9.12989 8.28099 8.99479 8.57872 8.85839C8.80878 8.75251 9.37355 8.50112 9.83371 8.29965C10.2939 8.09809 10.7198 7.89541 10.7802 7.84922C10.8605 7.78786 9.88209 7.25354 7.16147 5.87286C5.11071 4.83212 3.36702 3.98391 3.28661 3.98797C3.20619 3.99204 2.43444 4.35568 1.5716 4.79616ZM17.0109 5.02105C15.9425 5.49772 15.0676 5.90677 15.0666 5.9301C15.0657 5.9534 15.648 6.29558 16.3607 6.69039C17.0734 7.08529 17.6566 7.42949 17.6566 7.45542C17.6566 7.48128 17.0259 7.78327 16.2552 8.12664C15.4843 8.46992 13.536 9.33947 11.9254 10.059L6.52887 12.4697C5.17137 13.0761 3.94775 13.6227 3.80971 13.6845C1.03695 14.925 0.274825 15.2692 0.170164 15.3283C0.0649204 15.3878 0.0410822 15.7334 0.0223501 17.4679L0 19.5366L1.40287 20.243L2.8057 20.9494L4.75095 20.0818C5.82087 19.6047 6.6962 19.1893 6.6962 19.1587C6.6962 19.1282 6.49849 19.0009 6.25696 18.8757C6.01531 18.7505 5.51649 18.4733 5.14835 18.2596C4.78025 18.0459 4.41319 17.8499 4.3326 17.8239C4.25204 17.798 4.1873 17.7526 4.18861 17.723C4.18995 17.6935 5.04655 17.2914 6.09205 16.8294C8.12273 15.9321 9.67676 15.2406 13.0131 13.7495C14.5049 13.0829 15.997 12.4168 17.4892 11.751C18.8007 11.166 20.3256 10.4827 20.8778 10.2327L21.8818 9.77803L21.9041 7.68572L21.9265 5.59351L20.5037 4.87177C19.7211 4.47485 19.0522 4.15106 19.0171 4.15225C18.982 4.15334 18.0793 4.54426 17.0109 5.02105ZM21.5006 12.5693C21.2909 12.6705 20.8768 12.86 20.5802 12.9903C20.2837 13.1207 19.7211 13.3716 19.3299 13.548L18.6187 13.8685L18.6025 15.7054C18.5936 16.7156 18.5559 17.5377 18.5189 17.5324C18.4347 17.52 17.1018 16.8445 15.762 16.1349C14.7949 15.6229 14.7342 15.6026 14.5069 15.7138C14.3756 15.7781 13.5904 16.1261 12.7621 16.4873C11.9337 16.8484 11.229 17.1674 11.1959 17.1963C11.1628 17.2251 12.8299 18.1181 14.9006 19.1807L18.6654 21.1127L20.2736 20.2906C21.1581 19.8384 21.9101 19.426 21.9448 19.3741C22.0227 19.2575 22.0161 12.3692 21.938 12.3785C21.9071 12.3822 21.7102 12.468 21.5006 12.5693ZM12.5947 20.6544C12.3158 20.7729 12.0369 20.8916 11.7581 21.0104C10.9161 21.3704 11.0811 21.3824 10.0794 20.8896C9.4123 20.5614 9.12472 20.4601 8.9999 20.5093C8.90627 20.5461 8.10047 20.9044 7.20909 21.3054C6.31777 21.7064 5.55757 22.0345 5.51975 22.0345C5.14578 22.0345 5.7675 22.4016 8.16658 23.5975L10.9801 25L12.1639 24.4224C12.815 24.1048 14.1283 23.4686 15.0823 23.0088C16.0363 22.5489 16.805 22.1607 16.7906 22.146C16.7761 22.1315 15.9768 21.7258 15.0142 21.2446L13.2641 20.3698L12.5947 20.6544Z" fill="white"/>
</svg>
